<?xml version="1.0" encoding="UTF-8" standalone="no"?>
<svg
   width="900px"
   height="900px"
   viewBox="0 0 900 900"
   version="1.1"
   xml:space="preserve"
   id="SVGRoot"
   xmlns:xlink="http://www.w3.org/1999/xlink"
   xmlns="http://www.w3.org/2000/svg"
   xmlns:svg="http://www.w3.org/2000/svg"><defs
   id="defs2"><linearGradient
     id="linearGradient7"><stop
       style="stop-color:#4f46e5;stop-opacity:1;"
       offset="0"
       id="stop7" /><stop
       style="stop-color:#7c3aed;stop-opacity:1;"
       offset="1"
       id="stop8" /></linearGradient><linearGradient
     xlink:href="#linearGradient7"
     id="linearGradient8"
     x1="175.80853"
     y1="183.9586"
     x2="169.98706"
     y2="739.32727"
     gradientUnits="userSpaceOnUse" /></defs>

<style
   type="text/css"
   id="style1">
g.prefab path {
  vector-effect:non-scaling-stroke;
  -inkscape-stroke:hairline;
  fill: none;
  fill-opacity: 1;
  stroke-opacity: 1;
  stroke: #00349c;
}
</style>

<rect
   style="fill:url(#linearGradient8);stroke-width:1.10429;fill-opacity:1"
   id="rect3"
   width="900"
   height="900"
   x="0"
   y="0"
   rx="189.52368"
   ry="153.16272" /><path
   d="M 418.66059,100 C 353.73951,99.846208 356.63445,296.48191 310.61957,342.2793 264.60469,388.07669 67.984298,384.24884 67.830508,449.16992 67.676716,514.091 264.31242,511.19606 310.10981,557.21094 355.9072,603.22582 352.07935,799.84621 417.00043,800 481.92151,800.15379 479.02657,603.51809 525.04145,557.7207 571.05633,511.92331 767.67672,515.75116 767.83051,450.83008 767.9843,385.909 571.3486,388.80394 525.55121,342.78906 479.75382,296.77418 483.58167,100.15379 418.66059,100 Z m -0.83008,113.42187 A 174.58498,174.58498 0 0 1 443.41645,304 174.58498,174.58498 0 0 1 417.83051,394.57812 174.58498,174.58498 0 0 1 392.24457,304 174.58498,174.58498 0 0 1 417.83051,213.42187 Z m -0.24023,187.91407 c 3.94472,11.0164 7.67337,25.30204 16.2539,33.80078 8.58038,8.49858 22.93279,12.11958 33.98633,15.95898 -11.0164,3.94472 -25.30204,7.67338 -33.80078,16.25391 -8.49858,8.58038 -12.11959,22.93279 -15.95899,33.98633 -3.94472,-11.0164 -7.67337,-25.30204 -16.2539,-33.80078 -8.58038,-8.49858 -22.93279,-12.12154 -33.98633,-15.96094 11.0164,-3.94472 25.30204,-7.67142 33.80078,-16.25195 8.49858,-8.58038 12.11959,-22.93279 15.95899,-33.98633 z M 268.83051,424.41406 A 174.58498,174.58498 0 0 1 361.65473,451.5 174.58498,174.58498 0 0 1 268.83051,478.58594 174.58498,174.58498 0 0 1 176.00629,451.5 174.58498,174.58498 0 0 1 268.83051,424.41406 Z m 298,0 A 174.58498,174.58498 0 0 1 659.65473,451.5 174.58498,174.58498 0 0 1 566.83051,478.58594 174.58498,174.58498 0 0 1 474.00629,451.5 174.58498,174.58498 0 0 1 566.83051,424.41406 Z m -149,84.00781 A 174.58498,174.58498 0 0 1 443.41645,599 174.58498,174.58498 0 0 1 417.83051,689.57812 174.58498,174.58498 0 0 1 392.24457,599 174.58498,174.58498 0 0 1 417.83051,508.42187 Z"
   style="display:none;fill:#dbe2e3"
   id="path18" /><path
   d="M 453.26367,84.253906 C 440.70654,87.618581 274.12505,215.43885 267.625,226.69727 c -6.50005,11.25842 -33.90569,219.43114 -30.54102,231.98828 3.17279,11.84099 117.01155,160.63785 139.42579,183.02148 l 2.43554,-14.44141 H 544.38867 C 487.72051,620.72102 407.61068,609.21066 401.23437,605.5293 391.58999,599.96111 282.09324,457.26277 279.21094,446.50586 276.32863,435.74894 299.80681,257.41978 305.375,247.77539 310.94319,238.131 453.64152,128.63621 464.39844,125.75391 c 10.75691,-2.88231 189.08608,20.59392 198.73047,26.16211 9.64438,5.56818 119.14113,148.26652 122.02343,159.02343 2.88231,10.75692 -20.59587,189.08609 -26.16406,198.73047 -4.96499,8.59961 -118.95891,96.58944 -151.22461,117.5957 h 54.75781 l 1.89063,11.20899 C 717.93107,598.77436 792.8379,539.89613 797.1543,532.41992 803.65435,521.1615 831.05999,312.98878 827.69531,300.43164 824.33064,287.87451 696.51037,121.29497 685.25195,114.79492 673.99353,108.29487 465.82081,80.889232 453.26367,84.253906 Z"
   style="display:inline;fill:#f9f9f9;stroke:#f9f9f9;stroke-width:0.898396;stroke-linejoin:bevel;fill-opacity:1"
   id="path9" /><path
   d="m 475.05664,165.52734 c -9.06567,2.42914 -129.32875,94.70984 -134.02148,102.83789 -4.69274,8.12806 -24.47992,158.41871 -22.05079,167.48438 2.42914,9.06567 94.70984,129.32875 102.8379,134.02148 8.12805,4.69274 158.42065,24.47992 167.48632,22.05078 9.06568,-2.42913 129.32875,-94.71178 134.02149,-102.83984 4.69273,-8.12806 24.47797,-158.4187 22.04883,-167.48437 -2.42914,-9.06568 -94.70984,-129.32875 -102.83789,-134.02149 -8.12806,-4.69273 -158.41871,-24.47797 -167.48438,-22.04883 z m 56.0625,62.47461 c 14.64852,-0.22494 36.05905,94.24826 46.57617,104.44727 10.51713,10.199 105.60318,28.69914 105.82813,43.34765 0.22494,14.64852 -94.24826,36.05905 -104.44727,46.57618 -10.199,10.51712 -28.69914,105.60318 -43.34765,105.82812 C 521.08,528.42612 499.66947,433.95291 489.15234,423.75391 478.63522,413.5549 383.54916,395.05477 383.32422,380.40625 383.09928,365.75773 477.57248,344.3472 487.77148,333.83008 497.97049,323.31295 516.47063,228.2269 531.11914,228.00195 Z"
   style="display:inline;fill:#f9f9f9;stroke:#f9f9f9;stroke-width:0.237677;stroke-linejoin:bevel;fill-opacity:1"
   id="path10" /><path
   d="m 664.41211,638.47461 c -27.07518,20.08431 -48.67603,35.26028 -52.89453,36.39062 -12.55714,3.36468 -220.73182,-24.04096 -231.99024,-30.54101 -0.64207,-0.3707 -1.66196,-1.26343 -3.01757,-2.61719 l -19.80274,117.40234 h 328.05274 z"
   style="fill:#f9f9f9;stroke:#f9f9f9"
   id="path12" /><path
   d="m 664.41211,638.47461 -1.89063,-11.20899 h -54.75781 c -3.91998,2.55207 -6.63353,4.1155 -7.79883,4.42774 -3.64506,0.97669 -26.53177,-1.0734 -55.57617,-4.42774 H 378.94531 l -2.43554,14.44141 c 1.35561,1.35376 2.3755,2.24649 3.01757,2.61719 11.25842,6.50005 219.4331,33.90569 231.99024,30.54101 4.2185,-1.13034 25.81935,-16.30631 52.89453,-36.39062 z"
   style="fill:#f9f9f9;stroke:#f9f9f9"
   id="path11" /><path
   d="m 684.75977,759.10937 3.76171,22.30274 H 352.94531 l 3.76172,-22.30274 H 253.97656 c -4.84212,0 -8.74023,3.89812 -8.74023,8.74024 v 25.80859 c 0,4.84213 3.89811,8.74024 8.74023,8.74024 h 500.23828 c 4.84213,0 8.74024,-3.89811 8.74024,-8.74024 v -25.80859 c 0,-4.84212 -3.89811,-8.74024 -8.74024,-8.74024 z"
   style="display:inline;fill:#f9f9f9;stroke:#f9f9f9;stroke-width:1.57478;fill-opacity:1"
   id="path14" /><path
   d="M 684.75977,759.10937 H 356.70703 l -3.76172,22.30274 h 335.57617 z"
   style="display:inline;fill:#f9f9f9;stroke:#f9f9f9;stroke-width:1.57478;fill-opacity:1"
   id="path13" /><circle
   style="fill:#f9f9f9;stroke:#f9f9f9;stroke-width:29.3484;stroke-linejoin:miter;stroke-dasharray:none"
   id="path5"
   cx="155.29471"
   cy="766.56616"
   r="33.553856" /><path
   style="fill:none;stroke:#f9f9f9;stroke-width:36.0316;stroke-linecap:round;stroke-linejoin:miter;stroke-dasharray:none"
   d="m 169.27134,669.81972 c 5.7637,-49.89339 32.33623,-72.26727 72.92093,-75.05222"
   id="path6" /><rect
   style="fill:#f9f9f9;stroke:#f9f9f9;stroke-width:17.138;stroke-linecap:butt;stroke-linejoin:bevel;stroke-dasharray:none"
   id="rect23"
   width="45.11562"
   height="93.701721"
   x="-121.61008"
   y="572.81555"
   transform="rotate(-38.467699)" /></svg>
